<svg aria-hidden="true" style="position: absolute; width: 0; height: 0; overflow: hidden;" version="1.1" xmlns="http://www.w3.org/2000/svg" xmlns:xlink="http://www.w3.org/1999/xlink">
<defs>
<symbol id="icon-vector" viewBox="0 0 32 32">
<path d="M19.141 16.123l10.676-10.668c0.36-0.42 0.548-0.96 0.527-1.513s-0.251-1.077-0.642-1.467c-0.391-0.391-0.915-0.62-1.469-0.641s-1.093 0.167-1.514 0.526l-10.676 10.558-10.742-10.734c-0.42-0.36-0.961-0.548-1.514-0.526s-1.077 0.25-1.469 0.641c-0.391 0.391-0.62 0.915-0.642 1.467s0.167 1.093 0.527 1.513l10.72 10.844-10.501 10.361c-0.23 0.197-0.417 0.439-0.549 0.711s-0.206 0.569-0.218 0.871 0.039 0.604 0.15 0.885c0.11 0.282 0.278 0.538 0.492 0.751s0.47 0.381 0.752 0.492c0.282 0.11 0.584 0.161 0.886 0.15s0.599-0.086 0.872-0.217c0.273-0.132 0.515-0.318 0.712-0.548l10.479-10.471 10.413 10.405c0.42 0.359 0.961 0.547 1.514 0.526s1.077-0.25 1.469-0.641c0.391-0.391 0.621-0.915 0.642-1.467s-0.167-1.093-0.527-1.512l-10.369-10.295z"></path>
</symbol>
</defs>
<symbol id="icon-less" viewBox="0 0 14 32">
<path d="M0.379 16.991l11.733 14.533c0.196 0.243 0.456 0.378 0.726 0.378s0.531-0.135 0.726-0.378l0.013-0.016c0.095-0.118 0.171-0.259 0.223-0.416s0.079-0.326 0.079-0.497-0.027-0.34-0.079-0.497c-0.052-0.157-0.128-0.298-0.223-0.416l-11.048-13.684 11.048-13.679c0.095-0.118 0.171-0.259 0.223-0.416s0.079-0.326 0.079-0.497-0.027-0.34-0.079-0.497c-0.052-0.157-0.128-0.298-0.223-0.416l-0.013-0.016c-0.196-0.243-0.456-0.378-0.726-0.378s-0.531 0.135-0.726 0.378l-11.733 14.533c-0.103 0.128-0.185 0.282-0.241 0.452s-0.085 0.354-0.085 0.539c0 0.185 0.029 0.369 0.085 0.539s0.138 0.324 0.241 0.452z"></path>
</symbol>
<symbol id="icon-more" viewBox="0 0 18 32">
<path d="M17.653 15.035l-14.861-14.16c-0.248-0.236-0.577-0.368-0.92-0.368s-0.672 0.132-0.92 0.368l-0.016 0.016c-0.121 0.115-0.217 0.253-0.282 0.405s-0.099 0.318-0.099 0.484c0 0.166 0.034 0.331 0.099 0.484s0.162 0.291 0.282 0.405l13.995 13.333-13.995 13.328c-0.121 0.115-0.217 0.252-0.282 0.405s-0.099 0.317-0.099 0.484 0.034 0.331 0.099 0.484c0.066 0.153 0.162 0.291 0.282 0.405l0.016 0.016c0.248 0.236 0.577 0.368 0.92 0.368s0.672-0.132 0.92-0.368l14.861-14.16c0.131-0.125 0.235-0.274 0.306-0.44s0.108-0.345 0.108-0.525c0-0.181-0.037-0.359-0.108-0.525s-0.175-0.316-0.306-0.44z"></path>
</symbol>
</svg>
